<?xml version="1.0" ?><svg id="Layer_1" style="enable-background:new 0 0 512 512;" version="1.1" viewBox="0 0 512 512" xml:space="preserve" xmlns="http://www.w3.org/2000/svg" xmlns:xlink="http://www.w3.org/1999/xlink"><style type="text/css">
	.st0{fill:#DA4453;}
	.st1{fill:#FFFFFF;}
</style><circle class="st0" cx="256" cy="256" r="250"/><path class="st1" d="M268.5,347.7L268.5,347.7L268.5,347.7L268.5,347.7z M340.4,347.7L340.4,347.7L340.4,347.7L340.4,347.7z   M330.7,337.9L330.7,337.9L330.7,337.9L330.7,337.9z"/><path class="st1" d="M357.4,289.1c-35.2,35-91.5,91.4-101.4,101.2c-9.8-9.8-66.1-66.1-101.4-101.4c-31.5-31.5-30.9-77.4-2.1-106  c28.6-28.4,74.9-28.4,103.5,0.4c28.4-28.6,74.9-28.8,103.5-0.4C388.1,211.5,388.9,257.5,357.4,289.1z"/></svg>